<svg width="22" height="22" viewBox="0 0 22 22" fill="none" xmlns="http://www.w3.org/2000/svg">
<rect width="22" height="22" rx="8" fill="#6871EE"/>
<g clip-path="url(#clip0_26_498)">
<path d="M17.3506 5.8131C17.621 6.10334 17.621 6.56475 17.3506 6.85499L9.48835 15.2944C9.21796 15.5846 8.7881 15.5846 8.51771 15.2944L5.60577 12.1687C5.33538 11.8784 5.33538 11.417 5.60577 11.1268C5.87617 10.8365 6.30602 10.8365 6.57642 11.1268L9.00303 13.7315L16.3799 5.8131C16.6503 5.52285 17.0802 5.52285 17.3506 5.8131ZM15.8877 4.23537L9.00303 11.6254L7.06867 9.54904C6.52788 8.96855 5.64737 8.96855 5.10658 9.54904L4.13594 10.5909C3.59515 11.1714 3.59515 12.1166 4.13594 12.6971L8.01852 16.8646C8.55931 17.4451 9.43982 17.4451 9.98061 16.8646L18.8204 7.38338C19.3612 6.8029 19.3612 5.85775 18.8204 5.27726L17.8498 4.23537C17.302 3.65488 16.4285 3.65488 15.8877 4.23537Z" fill="white"/>
</g>
<defs>
<clipPath id="clip0_26_498">
<rect width="17.2174" height="18" fill="white" transform="translate(2.86951 2)"/>
</clipPath>
</defs>
</svg>
