<svg width="24" height="22" viewBox="0 0 24 22" fill="none" xmlns="http://www.w3.org/2000/svg">
<path d="M23.2709 8.41882C22.3681 6.94054 21.2294 5.62007 19.8999 4.50982L22.6999 1.70982C22.882 1.52122 22.9828 1.26861 22.9805 1.00642C22.9783 0.74422 22.8731 0.493408 22.6877 0.307999C22.5023 0.122591 22.2515 0.0174224 21.9893 0.015144C21.7271 0.0128656 21.4745 0.11366 21.2859 0.295818L18.2409 3.34482C16.3533 2.22364 14.1953 1.63928 11.9999 1.65482C5.80887 1.65482 2.28087 5.89282 0.728868 8.41882C0.249396 9.19432 -0.00457764 10.0881 -0.00457764 10.9998C-0.00457764 11.9116 0.249396 12.8053 0.728868 13.5808C1.63162 15.0591 2.77036 16.3796 4.09987 17.4898L1.29987 20.2898C1.20436 20.3821 1.12818 20.4924 1.07577 20.6144C1.02336 20.7364 0.995772 20.8676 0.994618 21.0004C0.993464 21.1332 1.01877 21.2649 1.06905 21.3878C1.11933 21.5107 1.19358 21.6223 1.28747 21.7162C1.38137 21.8101 1.49302 21.8844 1.61591 21.9346C1.73881 21.9849 1.87049 22.0102 2.00327 22.0091C2.13605 22.0079 2.26727 21.9803 2.38927 21.9279C2.51128 21.8755 2.62162 21.7993 2.71387 21.7038L5.76587 18.6518C7.65114 19.7728 9.80654 20.3582 11.9999 20.3448C18.1909 20.3448 21.7189 16.1068 23.2709 13.5808C23.7503 12.8053 24.0043 11.9116 24.0043 10.9998C24.0043 10.0881 23.7503 9.19432 23.2709 8.41882ZM2.43287 12.5338C2.148 12.0729 1.99712 11.5417 1.99712 10.9998C1.99712 10.4579 2.148 9.92677 2.43287 9.46582C3.76687 7.29982 6.78187 3.65482 11.9999 3.65482C13.6601 3.64552 15.2971 4.04566 16.7659 4.81982L14.7529 6.83282C13.7928 6.19542 12.6418 5.90981 11.4951 6.02446C10.3484 6.13911 9.27673 6.64696 8.46187 7.46182C7.64701 8.27668 7.13916 9.34838 7.02451 10.4951C6.90986 11.6417 7.19547 12.7928 7.83287 13.7528L5.52287 16.0628C4.29797 15.0725 3.25271 13.8788 2.43287 12.5338ZM14.9999 10.9998C14.9999 11.7955 14.6838 12.5585 14.1212 13.1211C13.5586 13.6837 12.7955 13.9998 11.9999 13.9998C11.5544 13.9981 11.1151 13.8955 10.7149 13.6998L14.6999 9.71482C14.8956 10.115 14.9981 10.5543 14.9999 10.9998ZM8.99987 10.9998C8.99987 10.2042 9.31594 9.44111 9.87855 8.8785C10.4412 8.31589 11.2042 7.99982 11.9999 7.99982C12.4454 8.00154 12.8847 8.10411 13.2849 8.29982L9.29987 12.2848C9.10416 11.8846 9.00159 11.4453 8.99987 10.9998ZM21.5669 12.5338C20.2329 14.6998 17.2179 18.3448 11.9999 18.3448C10.3396 18.3541 8.70263 17.954 7.23387 17.1798L9.24687 15.1668C10.2069 15.8042 11.358 16.0898 12.5046 15.9752C13.6513 15.8605 14.723 15.3527 15.5379 14.5378C16.3527 13.723 16.8606 12.6513 16.9752 11.5046C17.0899 10.3579 16.8043 9.20689 16.1669 8.24682L18.4769 5.93682C19.7018 6.9271 20.747 8.12087 21.5669 9.46582C21.8517 9.92677 22.0026 10.4579 22.0026 10.9998C22.0026 11.5417 21.8517 12.0729 21.5669 12.5338Z" fill="white"/>
</svg>
