<svg width="32" height="32" viewBox="0 0 32 32" fill="none" xmlns="http://www.w3.org/2000/svg">
<g clip-path="url(#clip0_2_130)">
<mask id="mask0_2_130" style="mask-type:luminance" maskUnits="userSpaceOnUse" x="0" y="0" width="32" height="32">
<path d="M32 0H0V32H32V0Z" fill="white"/>
</mask>
<g mask="url(#mask0_2_130)">
<path d="M18.6667 8V5.33333H13.3334V8H18.6667ZM5.33335 12V24C5.33335 24.7333 5.93335 25.3333 6.66669 25.3333H25.3334C26.0667 25.3333 26.6667 24.7333 26.6667 24V12C26.6667 11.2667 26.0667 10.6667 25.3334 10.6667H6.66669C5.93335 10.6667 5.33335 11.2667 5.33335 12ZM26.6667 8C28.1467 8 29.3334 9.18667 29.3334 10.6667V25.3333C29.3334 26.8133 28.1467 28 26.6667 28H5.33335C3.85335 28 2.66669 26.8133 2.66669 25.3333L2.68002 10.6667C2.68002 9.18667 3.85335 8 5.33335 8H10.6667V5.33333C10.6667 3.85333 11.8534 2.66667 13.3334 2.66667H18.6667C20.1467 2.66667 21.3334 3.85333 21.3334 5.33333V8H26.6667Z" fill="#323232"/>
</g>
</g>
<defs>
<clipPath id="clip0_2_130">
<rect width="32" height="32" fill="white"/>
</clipPath>
</defs>
</svg>
