<svg width="45" height="45" viewBox="0 0 45 45" fill="none" xmlns="http://www.w3.org/2000/svg">
<rect width="45" height="45" rx="22.5" fill="#6871EE"/>
<g clip-path="url(#clip0_2_150)">
<mask id="mask0_2_150" style="mask-type:luminance" maskUnits="userSpaceOnUse" x="7" y="7" width="32" height="32">
<path d="M39 7H7V39H39V7Z" fill="white"/>
</mask>
<g mask="url(#mask0_2_150)">
<path d="M25.6667 15V12.3333H20.3334V15H25.6667ZM12.3334 19V31C12.3334 31.7333 12.9334 32.3333 13.6667 32.3333H32.3334C33.0667 32.3333 33.6667 31.7333 33.6667 31V19C33.6667 18.2667 33.0667 17.6667 32.3334 17.6667H13.6667C12.9334 17.6667 12.3334 18.2667 12.3334 19ZM33.6667 15C35.1467 15 36.3334 16.1867 36.3334 17.6667V32.3333C36.3334 33.8133 35.1467 35 33.6667 35H12.3334C10.8534 35 9.66669 33.8133 9.66669 32.3333L9.68002 17.6667C9.68002 16.1867 10.8534 15 12.3334 15H17.6667V12.3333C17.6667 10.8533 18.8534 9.66666 20.3334 9.66666H25.6667C27.1467 9.66666 28.3334 10.8533 28.3334 12.3333V15H33.6667Z" fill="white"/>
</g>
</g>
<defs>
<clipPath id="clip0_2_150">
<rect width="32" height="32" fill="white" transform="translate(7 7)"/>
</clipPath>
</defs>
</svg>
