<svg width="22" height="22" viewBox="0 0 22 22" fill="none" xmlns="http://www.w3.org/2000/svg">
<g clip-path="url(#clip0_1_123)">
<mask id="mask0_1_123" style="mask-type:luminance" maskUnits="userSpaceOnUse" x="0" y="0" width="22" height="22">
<path d="M22 0H0V22H22V0Z" fill="white"/>
</mask>
<g mask="url(#mask0_1_123)">
<path d="M5.49998 17.4167C5.49998 18.425 6.32498 19.25 7.33331 19.25H14.6666C15.675 19.25 16.5 18.425 16.5 17.4167V8.25C16.5 7.24167 15.675 6.41667 14.6666 6.41667H7.33331C6.32498 6.41667 5.49998 7.24167 5.49998 8.25V17.4167ZM8.24998 8.25H13.75C14.2541 8.25 14.6666 8.6625 14.6666 9.16667V16.5C14.6666 17.0042 14.2541 17.4167 13.75 17.4167H8.24998C7.74581 17.4167 7.33331 17.0042 7.33331 16.5V9.16667C7.33331 8.6625 7.74581 8.25 8.24998 8.25ZM14.2083 3.66667L13.5575 3.01583C13.3925 2.85083 13.1541 2.75 12.9158 2.75H9.08415C8.84581 2.75 8.60748 2.85083 8.44248 3.01583L7.79165 3.66667H5.49998C4.99581 3.66667 4.58331 4.07917 4.58331 4.58333C4.58331 5.0875 4.99581 5.5 5.49998 5.5H16.5C17.0041 5.5 17.4166 5.0875 17.4166 4.58333C17.4166 4.07917 17.0041 3.66667 16.5 3.66667H14.2083Z" fill="#6871EE"/>
</g>
</g>
<defs>
<clipPath id="clip0_1_123">
<rect width="22" height="22" fill="white"/>
</clipPath>
</defs>
</svg>
